HIERARCHY
ROOT Hips
{
	OFFSET 0.000000 0.000000 0.000000
	CHANNELS 6 Xposition Yposition Zposition Yrotation Xrotation Zrotation
	JOINT Chest
	{
		OFFSET 0.000000 -0.009282 11.569106
		CHANNELS 6 Xposition Yposition Zposition Yrotation Xrotation Zrotation
		JOINT Chest2
		{
			OFFSET -0.000000 0.016863 9.269641
			CHANNELS 6 Xposition Yposition Zposition Yrotation Xrotation Zrotation
			JOINT Chest3
			{
				OFFSET -0.000000 0.000000 8.374491
				CHANNELS 6 Xposition Yposition Zposition Yrotation Xrotation Zrotation
				JOINT Chest4
				{
					OFFSET -0.000000 0.000000 8.374493
					CHANNELS 6 Xposition Yposition Zposition Yrotation Xrotation Zrotation
					JOINT Neck
					{
						OFFSET -0.000000 0.000001 12.152554
						CHANNELS 6 Xposition Yposition Zposition Yrotation Xrotation Zrotation
						JOINT Head
						{
							OFFSET -0.000000 0.040100 7.802319
							CHANNELS 6 Xposition Yposition Zposition Yrotation Xrotation Zrotation
							End Site
							{
								OFFSET -0.000000 0.020946 14.853096
							}
						}
					}
					JOINT RightCollar
					{
						OFFSET 2.894404 0.000001 6.791374
						CHANNELS 6 Xposition Yposition Zposition Yrotation Xrotation Zrotation
						JOINT RightShoulder
						{
							OFFSET 13.574684 0.000001 0.000000
							CHANNELS 6 Xposition Yposition Zposition Yrotation Xrotation Zrotation
							JOINT RightElbow
							{
								OFFSET 23.923903 0.000002 0.000000
								CHANNELS 6 Xposition Yposition Zposition Yrotation Xrotation Zrotation
								JOINT RightWrist
								{
									OFFSET 19.846718 0.012767 0.000000
									CHANNELS 6 Xposition Yposition Zposition Yrotation Xrotation Zrotation
									End Site
									{
										OFFSET 14.973145 0.000001 0.000000
									}
								}
							}
						}
					}
					JOINT LeftCollar
					{
						OFFSET -2.894404 0.000000 6.791374
						CHANNELS 6 Xposition Yposition Zposition Yrotation Xrotation Zrotation
						JOINT LeftShoulder
						{
							OFFSET -13.574684 -0.000001 0.000000
							CHANNELS 6 Xposition Yposition Zposition Yrotation Xrotation Zrotation
							JOINT LeftElbow
							{
								OFFSET -23.923903 -0.000002 0.000000
								CHANNELS 6 Xposition Yposition Zposition Yrotation Xrotation Zrotation
								JOINT LeftWrist
								{
									OFFSET -19.846718 0.012763 0.000000
									CHANNELS 6 Xposition Yposition Zposition Yrotation Xrotation Zrotation
									End Site
									{
										OFFSET -14.973145 -0.000001 0.000000
									}
								}
							}
						}
					}
				}
			}
		}
	}
	JOINT RightHip
	{
		OFFSET 9.469263 0.004643 0.045487
		CHANNELS 6 Xposition Yposition Zposition Yrotation Xrotation Zrotation
		JOINT RightKnee
		{
			OFFSET 0.000000 0.002666 -40.478676
			CHANNELS 6 Xposition Yposition Zposition Yrotation Xrotation Zrotation
			JOINT RightAnkle
			{
				OFFSET 0.000000 0.049110 -35.224068
				CHANNELS 6 Xposition Yposition Zposition Yrotation Xrotation Zrotation
				JOINT RightToe
				{
					OFFSET -0.000001 12.539530 -6.151390
					CHANNELS 6 Xposition Yposition Zposition Yrotation Xrotation Zrotation
					End Site
					{
						OFFSET -0.000001 5.044996 -1.291870
					}
				}
			}
		}
	}
	JOINT LeftHip
	{
		OFFSET -9.469263 0.004641 0.045487
		CHANNELS 6 Xposition Yposition Zposition Yrotation Xrotation Zrotation
		JOINT LeftKnee
		{
			OFFSET 0.000000 0.002666 -40.478676
			CHANNELS 6 Xposition Yposition Zposition Yrotation Xrotation Zrotation
			JOINT LeftAnkle
			{
				OFFSET 0.000000 0.049110 -35.224068
				CHANNELS 6 Xposition Yposition Zposition Yrotation Xrotation Zrotation
				JOINT LeftToe
				{
					OFFSET -0.000001 12.539530 -6.151390
					CHANNELS 6 Xposition Yposition Zposition Yrotation Xrotation Zrotation
					End Site
					{
						OFFSET -0.000001 5.044996 -1.291870
					}
				}
			}
		}
	}
}
MOTION
Frames: 4
Frame Time: 0.016667
5.244713 4.369165 83.049194 -10.225246 -2.862845 -103.481280 0.000001 -0.009281 11.569103 -0.327067 -5.495600 1.763522 -0.000000 0.016865 9.269637 -0.102780 -2.435258 0.783475 -0.000000 0.000000 8.374491 -0.102780 -2.435258 0.783475 0.000000 0.000000 8.374499 -0.073950 -1.826579 0.587108 -0.000000 0.000003 12.152562 7.029732 -23.235839 -10.613111 -0.000001 0.040100 7.802323 9.850982 -6.728589 -17.237615 2.894405 0.000001 6.791378 8.222808 -0.914380 -11.777334 13.574684 0.000001 0.000008 65.708988 10.228579 33.550784 23.923906 0.000015 -0.000002 23.073772 -59.328854 94.082181 19.846710 0.012775 0.000006 -17.290484 16.687086 33.392368 -2.894405 0.000000 6.791379 -8.105037 0.107708 -4.841412 -13.574686 -0.000002 -0.000006 -54.464690 -6.432285 -40.309639 -23.923903 0.000009 -0.000008 -28.200883 -33.140819 -75.037319 -19.846720 0.012756 0.000005 14.554240 14.146317 -45.420758 9.469263 0.004644 0.045478 1.423073 -13.763107 -10.753070 0.000126 0.002658 -40.478519 -3.803417 3.383543 -2.941878 0.000027 0.049105 -35.224056 4.792841 0.421886 -0.579346 -0.000004 12.539528 -6.151398 0.013096 -0.043502 0.091539 -9.469262 0.004642 0.045473 0.584677 -13.699850 -22.131201 -0.000875 0.002509 -40.478451 -0.984900 5.247210 19.040781 -0.000972 0.048925 -35.224072 1.336066 -0.438031 21.348055 0.000006 12.539535 -6.151397 -0.039611 -0.020458 -0.150498 
5.182104 4.415267 83.050476 -10.191528 -2.859877 -103.488376 -0.000000 -0.009282 11.569108 -0.330943 -5.602600 1.769209 -0.000000 0.016863 9.269645 -0.103982 -2.482223 0.784635 -0.000000 -0.000000 8.374489 -0.103982 -2.482222 0.784636 0.000000 0.000000 8.374491 -0.074786 -1.861805 0.587960 0.000000 0.000003 12.152567 7.143084 -23.498704 -10.617515 -0.000002 0.040111 7.802319 10.077360 -7.205078 -17.222228 2.894404 0.000001 6.791389 8.286948 -0.938264 -11.808209 13.574682 0.000001 -0.000008 65.909843 10.266296 33.218369 23.923891 0.000001 0.000009 21.890686 -59.350881 94.658861 19.846718 0.012746 -0.000007 -16.766484 16.555071 34.000118 -2.894404 0.000000 6.791389 -8.153237 0.065781 -4.824696 -13.574685 -0.000001 -0.000006 -54.344810 -6.447842 -40.029000 -23.923906 -0.000004 -0.000005 -27.996971 -33.135286 -74.949865 -19.846720 0.012766 0.000004 14.118349 13.787867 -46.330625 9.469264 0.004641 0.045485 1.406319 -13.681392 -10.728497 0.000127 0.002658 -40.478519 -3.812367 3.397704 -2.959694 0.000028 0.049106 -35.224060 4.821101 0.356528 -0.576322 -0.000004 12.539529 -6.151395 0.008652 -0.043667 0.088512 -9.469262 0.004641 0.045481 0.567813 -13.626386 -22.093529 -0.000876 0.002508 -40.478462 -0.978677 5.271957 19.023274 -0.000974 0.048927 -35.224072 1.339574 -0.503092 21.302906 0.000006 12.539535 -6.151393 -0.034834 -0.021418 -0.147187 
5.115674 4.465065 83.051910 -10.144853 -2.851742 -103.495773 0.000001 -0.009285 11.569113 -0.336191 -5.711258 1.777118 -0.000000 0.016864 9.269650 -0.106047 -2.530781 0.788307 -0.000001 -0.000000 8.374486 -0.106047 -2.530781 0.788308 -0.000001 0.000000 8.374501 -0.076256 -1.898226 0.590696 0.000000 0.000001 12.152547 7.250014 -23.748624 -10.622340 0.000000 0.040106 7.802310 10.290803 -7.658257 -17.210005 2.894404 0.000001 6.791368 8.360773 -0.971885 -11.848371 13.574685 0.000002 0.000005 66.085434 10.257187 32.906769 23.923899 0.000008 0.000002 20.832511 -59.336326 95.122692 19.846712 0.012753 -0.000007 -16.275303 16.465860 34.580445 -2.894404 0.000000 6.791370 -8.201486 0.042655 -4.820138 -13.574686 -0.000001 -0.000004 -54.234912 -6.503728 -39.735315 -23.923901 0.000008 0.000001 -27.859664 -33.121261 -74.821362 -19.846712 0.012754 -0.000002 13.774294 13.463119 -47.192147 9.469263 0.004641 0.045490 1.386618 -13.582494 -10.701125 0.000127 0.002658 -40.478512 -3.823616 3.411428 -2.972994 0.000026 0.049105 -35.224060 4.854329 0.288484 -0.574436 -0.000005 12.539528 -6.151397 0.002648 -0.043805 0.085500 -9.469261 0.004640 0.045495 0.552059 -13.541413 -22.053414 -0.000875 0.002509 -40.478462 -0.973455 5.307379 18.995087 -0.000969 0.048929 -35.224068 1.341418 -0.579314 21.245488 0.000006 12.539532 -6.151391 -0.029649 -0.018668 -0.144239 
5.046415 4.519792 83.053307 -10.093784 -2.840689 -103.504284 0.000001 -0.009283 11.569104 -0.339825 -5.817785 1.778603 0.000001 0.016862 9.269643 -0.107278 -2.578920 0.788769 0.000000 0.000001 8.374491 -0.107279 -2.578921 0.788769 0.000000 0.000000 8.374489 -0.077115 -1.934332 0.591023 -0.000001 0.000002 12.152543 7.344343 -23.993946 -10.621588 -0.000001 0.040096 7.802321 10.482580 -8.103974 -17.191880 2.894403 0.000000 6.791369 8.427093 -0.998772 -11.877906 13.574687 0.000001 -0.000002 66.223281 10.167851 32.570122 23.923885 0.000007 0.000001 19.744634 -59.251304 95.575322 19.846708 0.012772 0.000001 -15.824677 16.475968 35.305169 -2.894405 -0.000000 6.791370 -8.258359 0.032398 -4.804389 -13.574686 -0.000001 0.000001 -54.137705 -6.602099 -39.403341 -23.923908 -0.000006 -0.000005 -27.679437 -33.061913 -74.734817 -19.846708 0.012763 0.000006 13.452458 13.057072 -47.898641 9.469264 0.004642 0.045478 1.362158 -13.473715 -10.662050 0.000129 0.002658 -40.478512 -3.836323 3.420897 -2.999131 0.000026 0.049107 -35.224056 4.890986 0.219825 -0.574422 -0.000005 12.539530 -6.151393 -0.003007 -0.045112 0.084711 -9.469262 0.004641 0.045482 0.535985 -13.454948 -22.002587 -0.000873 0.002510 -40.478462 -0.966836 5.347599 18.972160 -0.000962 0.048930 -35.224079 1.338475 -0.659329 21.076649 0.000006 12.539533 -6.151399 -0.024406 -0.014903 -0.144560 
